<svg xmlns="http://www.w3.org/2000/svg" viewBox="0 0 48 48" id="Dragon"><path fill-rule="evenodd" d="m24,4C12.96,4,4,12.96,4,24s8.96,20,20,20,20-8.96,20-20S35.04,4,24,4h0Zm0,2c9.93,0,18,8.07,18,18s-8.07,18-18,18S6,33.93,6,24,14.07,6,24,6h0Zm0,1c-9.38,0-17,7.62-17,17s7.62,17,17,17,17-7.62,17-17S33.38,7,24,7h0Zm1.43,30.4c-1.06.25-2.13.3-3.21.2,0,.41-.03.84-.1,1.28.61.08,1.24.12,1.87.12.37,0,.74-.01,1.11-.04.08-.33.22-.92.32-1.56h0Zm1.78,1.26c6.74-1.47,11.79-7.48,11.79-14.66,0-8.28-6.72-15-15-15s-15,6.72-15,15c0,3.86,1.46,7.37,3.85,10.03-.01-1.34.15-2.58.42-3.76l-1.47-.29c-.53-.1-.87-.61-.79-1.13.21-1.34.61-2.6,1.29-3.74l-.55-.14c-.46-.11-.77-.53-.76-1.01.07-1.97.9-3.34,2.31-4.24l-1.02-1.02c-.19-.19-.29-.44-.29-.71s.11-.52.29-.71c1.54-1.54,3.19-2.48,4.97-2.75l-.62-1.03c-.19-.32-.19-.71,0-1.03.19-.32.54-.5.91-.48,1.82.1,3.55.4,5.21.85,1.22.33,2.33,1.02,3.45,1.65.9.51,1.79.98,2.81,1,.1,0,.19-.06.29-.12.21-.12.42-.29.62-.48.69-.65,1.24-1.46,1.24-1.46.17-.25.44-.41.73-.44.3-.03.59.08.8.29,0,0,1.06,1.07,1.71,2.09.37.59.59,1.18.59,1.62,0,.66-.09,1.34-.45,2.01-.35.65-.97,1.31-2.1,1.88-1.35.67-3.36.54-4.84.43-.19-.01-.39-.02-.58-.02.17.2.42.38.71.55,1.47.86,3.98,1.37,6.16,1.16.37-.04.73.14.93.45.21.31.22.71.04,1.03,0,0-.87,1.56-1.92,2.55-.59.55-1.26.91-1.87.96-2.15.18-3.93-.42-5.43-1.04-.13.29-.3.69-.43,1.1-.15.45-.29.92-.23,1.27.11.66.62,1.5,1.1,2.36.61,1.08,1.21,2.19,1.39,3.11.21,1.03-.05,2.74-.27,3.85h0Zm-7.05-.15c.27-2.14-.35-3.88-.82-5.49-.42-1.45-.73-2.81-.47-4.2.19-1.04.64-2.36,1.32-3.32.57-.79,1.3-1.34,2.13-1.49.9-.16,1.97.19,3.21.72,1.42.61,3.17,1.45,5.38,1.27.12-.01.24-.09.36-.18.22-.16.44-.37.64-.6.06-.07.12-.14.18-.2-2.52-.16-5.02-1-6.22-2.06-.99-.88-1.27-1.9-.77-2.91.18-.35.61-.71,1.39-.76.61-.04,1.61.09,2.66.13.84.03,1.73.02,2.4-.31.65-.33,1.04-.67,1.24-1.04.19-.35.21-.72.21-1.07,0-.07-.06-.15-.1-.25-.11-.21-.25-.43-.41-.65-.14-.19-.29-.38-.43-.55-.34.4-.77.86-1.23,1.21-.61.47-1.27.75-1.85.74-1.35-.03-2.56-.58-3.75-1.25-.97-.55-1.93-1.18-2.99-1.47-.93-.25-1.88-.45-2.86-.59l.48.8c.19.32.19.73-.01,1.05-.2.32-.57.5-.95.46-1.61-.17-3.08.4-4.45,1.54l1.26,1.26c.24.24.34.59.27.92-.07.33-.31.6-.63.72-1.17.44-1.97,1.17-2.25,2.31l1.14.28c.34.09.61.34.71.68.1.34.02.7-.21.96-.81.89-1.28,1.93-1.56,3.05l1.52.3c.27.05.51.22.66.46.15.24.19.52.11.79-.51,1.83-.8,3.79-.47,6.09,0,.05,0,.09,0,.14,1.52,1.14,3.27,2,5.16,2.51h0Zm4.47-5.33c-1.04.27-2.09.25-3.14.06.02.07.04.14.06.21.2.68.38,1.38.51,2.12,1.18.15,2.34.09,3.48-.28,0-.03-.01-.06-.02-.1-.12-.61-.49-1.31-.89-2.02h0Zm-8.46-3.73c-.55.83-.74,2.06-.11,3.88.18.52.75.8,1.27.62s.8-.75.62-1.27c-.34-.99-.41-1.67-.11-2.12.3-.46.18-1.08-.28-1.38-.46-.3-1.08-.18-1.38.28h0Zm4.78-.78c-.05.18-.08.35-.11.51-.12.63-.07,1.26.05,1.89.92.24,1.83.4,2.74.28-.3-.61-.53-1.19-.62-1.68-.02-.13-.03-.27-.03-.42l-2.03-.58h0Zm-2.77-3.65c-.69-.12-1.29-.05-1.8.2-.52.25-.96.69-1.28,1.36-.23.5-.02,1.1.48,1.33.5.23,1.1.02,1.33-.48.09-.19.19-.34.34-.41.16-.08.36-.07.58-.03.54.1,1.06-.27,1.16-.81.1-.54-.27-1.06-.81-1.16h0Zm5.64,1.16c-.41-.16-.79-.25-1.13-.19-.35.06-.62.35-.86.68-.03.05-.06.09-.1.14l1.65.47c.14-.41.3-.8.44-1.1h0Zm-5.11-3.89c-.42-.41-.87-.61-1.32-.67-.61-.08-1.27.1-1.94.56-.45.31-.57.93-.26,1.39.31.45.93.57,1.39.26.27-.18.51-.32.74-.11.4.38,1.03.37,1.41-.02s.37-1.03-.02-1.41h0Zm2.12-2.87c-.75-1.05-1.72-1.37-2.77-1.42-.55-.02-1.02.41-1.04.96-.02.55.41,1.02.96,1.04.46.02.9.12,1.23.58.32.45.95.55,1.4.23.45-.32.55-.95.23-1.4h0Z" fill="#d85b53" class="color000000 svgShape"></path></svg>